<svg width="380" height="156" viewBox="0 0 380 156" fill="none" xmlns="http://www.w3.org/2000/svg">
<path d="M57 90.5C57.9333 90.5 58.8333 90.8 59.7 91.4C60.6333 92 61.1 92.6 61.1 93.2C58.1 99.2 54.0667 103.933 49 107.4C44 110.8 38.5667 112.5 32.7 112.5C27.3 112.5 22.6 111.033 18.6 108.1C14.6 105.1 11.5 100.9 9.3 95.5C7.1 90.1 6 83.7 6 76.3C6 69.3667 6.9 63.0333 8.7 57.3C10.5 51.5667 13.0333 46.6333 16.3 42.5C19.6333 38.3 23.5667 35.0667 28.1 32.8C32.6333 30.5333 37.6333 29.4 43.1 29.4C49.4333 29.4 54.4333 31.0333 58.1 34.3C61.8333 37.5667 63.7 41.9667 63.7 47.5C63.7 50.3667 63.1667 52.9 62.1 55.1C61.0333 57.3 59.5333 59.0333 57.6 60.3C55.7333 61.5667 53.5667 62.2 51.1 62.2C50.5667 62.2 49.9333 62.1333 49.2 62C48.4667 61.8667 47.6333 61.6667 46.7 61.4C47.8333 60.2 48.8333 58.7333 49.7 57C50.5667 55.2667 51.2333 53.4333 51.7 51.5C52.2333 49.5667 52.5 47.7333 52.5 46C52.5 42.5333 51.6 39.8667 49.8 38C48.0667 36.1333 45.6333 35.2 42.5 35.2C38.9667 35.2 35.6333 36.3 32.5 38.5C29.4333 40.6333 26.7 43.6333 24.3 47.5C21.9667 51.3 20.1333 55.7333 18.8 60.8C17.4667 65.8 16.8 71.1667 16.8 76.9C16.8 82.7667 17.5667 87.8667 19.1 92.2C20.6333 96.5333 22.8 99.8667 25.6 102.2C28.4 104.533 31.7 105.7 35.5 105.7C39.6333 105.7 43.6333 104.333 47.5 101.6C51.3667 98.8667 54.5333 95.1667 57 90.5ZM90.7523 73C92.4857 67.8667 94.319 63.8 96.2523 60.8C98.2523 57.7333 100.252 55.5333 102.252 54.2C104.252 52.8667 106.052 52.2 107.652 52.2C109.586 52.2 111.152 52.7333 112.352 53.8C113.619 54.8667 114.552 56.2667 115.152 58C115.819 59.6667 116.152 61.4667 116.152 63.4C116.152 65.5333 115.786 67.5667 115.052 69.5C114.386 71.4333 113.286 73 111.752 74.2C110.286 75.4 108.352 76 105.952 76C105.552 76 105.152 76 104.752 76C104.352 75.9333 103.919 75.8667 103.452 75.8C104.252 74.6667 105.019 73.1333 105.752 71.2C106.486 69.2 106.852 67.4 106.852 65.8C106.852 64.7333 106.619 63.8667 106.152 63.2C105.752 62.5333 105.019 62.2 103.952 62.2C102.486 62.2 100.852 63.1 99.0523 64.9C97.319 66.6333 95.619 69.2 93.9523 72.6C92.3523 75.9333 91.019 80.0333 89.9523 84.9C88.9523 89.7667 88.4523 95.3 88.4523 101.5C88.4523 102.833 88.519 104.2 88.6523 105.6C88.7857 107 88.8857 108.467 88.9523 110C88.2857 110.067 87.719 110.1 87.2523 110.1C86.7857 110.167 86.3523 110.2 85.9523 110.2C83.0857 110.2 80.8857 109.533 79.3523 108.2C77.8857 106.867 77.1523 104.667 77.1523 101.6C77.1523 100.133 77.3523 98.0667 77.7523 95.4C78.219 92.6667 78.719 89.6 79.2523 86.2C79.7857 82.8 80.2523 79.3 80.6523 75.7C81.119 72.0333 81.3523 68.5333 81.3523 65.2C81.3523 62.6 81.219 60.0333 80.9523 57.5C80.6857 54.9667 80.2523 52.5333 79.6523 50.2C83.7857 51.8667 86.5857 54.1667 88.0523 57.1C89.519 60.0333 90.2523 63.4333 90.2523 67.3C90.2523 67.9667 90.219 68.8 90.1523 69.8C90.1523 70.7333 90.0857 71.7333 89.9523 72.8L90.7523 73ZM139.741 111.5C136.208 111.5 133.041 110.467 130.241 108.4C127.508 106.333 125.341 103.467 123.741 99.8C122.208 96.0667 121.441 91.8333 121.441 87.1C121.441 82.1667 122.141 77.6 123.541 73.4C125.008 69.1333 127.041 65.4333 129.641 62.3C132.241 59.1667 135.275 56.7333 138.741 55C142.275 53.2 146.075 52.3 150.141 52.3C155.075 52.3 158.808 53.5333 161.341 56C163.875 58.4667 165.141 62.0667 165.141 66.8C165.141 70.3333 164.175 73.5333 162.241 76.4C160.308 79.2 157.641 81.4 154.241 83C150.908 84.6 147.075 85.4 142.741 85.4C140.608 85.4 138.608 85.3 136.741 85.1C134.875 84.8333 133.075 84.5 131.341 84.1L131.641 80.6H135.341C139.208 80.6 142.575 79.9667 145.441 78.7C148.308 77.3667 150.541 75.5 152.141 73.1C153.741 70.7 154.541 67.9333 154.541 64.8C154.541 62.4667 153.975 60.6667 152.841 59.4C151.775 58.1333 150.241 57.5 148.241 57.5C145.708 57.5 143.441 58.4667 141.441 60.4C139.441 62.2667 137.741 64.7333 136.341 67.8C134.941 70.8 133.875 74.0333 133.141 77.5C132.408 80.9667 132.041 84.2667 132.041 87.4C132.041 93.2667 132.908 97.7 134.641 100.7C136.441 103.633 139.075 105.1 142.541 105.1C149.075 105.1 154.441 101.833 158.641 95.3C161.108 95.7 162.341 96.6 162.341 98C159.475 102.667 156.208 106.1 152.541 108.3C148.941 110.433 144.675 111.5 139.741 111.5Z" fill="black"/>
<path d="M214.2 58.5C213.133 57.6333 211.4 56.9 209 56.3C206.667 55.7 204.9 55.4 203.7 55.4C202.5 55.4 201.8 55.4 201.6 55.4C198 55.4667 195.4 56.4 193.8 58.2C192.2 59.9333 191.4 61.9 191.4 64.1C191.4 66.3 192.1 68.1667 193.5 69.7C194.9 71.1667 196.633 72.3333 198.7 73.2C200.833 74 203.1 74.9333 205.5 76C207.967 77.0667 210.233 78.1667 212.3 79.3C214.433 80.3667 216.2 81.9667 217.6 84.1C219 86.1667 219.7 88.7667 219.7 91.9C219.7 95.0333 218.6 97.7 216.4 99.9C214.2 102.1 211.733 103.567 209 104.3C206.333 105.033 203.433 105.4 200.3 105.4C193.5 105.4 188.4 103.9 185 100.9L185.6 100.3C186.933 101.567 188.9 102.6 191.5 103.4C194.167 104.2 196.733 104.6 199.2 104.6C203.133 104.6 206.367 103.533 208.9 101.4C211.5 99.2 212.8 96.5 212.8 93.3C212.8 90.0333 211.833 87.4333 209.9 85.5C207.967 83.5 205.6 81.9667 202.8 80.9C200.067 79.7667 197.3 78.6667 194.5 77.6C191.7 76.4667 189.333 74.9333 187.4 73C185.467 71 184.5 68.7 184.5 66.1C184.5 63.5 185.1 61.4 186.3 59.8C187.5 58.1333 189.1 56.9667 191.1 56.3C194.5 55.1667 197.9 54.6 201.3 54.6C207.033 54.6 211.5 55.6667 214.7 57.8L214.2 58.5ZM226.234 55H233.234V67.4C234.368 64.3333 236.468 61.4333 239.534 58.7C242.601 55.9667 246.068 54.6 249.934 54.6C263.468 54.6 270.234 62.5333 270.234 78.4C270.234 96.4 261.501 105.4 244.034 105.4C240.901 105.4 237.301 104.667 233.234 103.2V130H226.234V55ZM249.834 55.4C245.701 55.4 241.968 57.2 238.634 60.8C235.301 64.3333 233.501 67.5333 233.234 70.4V102.3C237.301 103.833 240.868 104.6 243.934 104.6C256.801 104.6 263.234 95.8333 263.234 78.3C263.234 63.0333 258.768 55.4 249.834 55.4Z" fill="black"/>
<rect x="171.5" y="8.5" width="207" height="146" stroke="black" stroke-width="3"/>
</svg>
