<svg width="210" height="149" viewBox="0 0 210 149" fill="none" xmlns="http://www.w3.org/2000/svg">
<path d="M44.2 51.5C43.1333 50.6333 41.4 49.9 39 49.3C36.6667 48.7 34.9 48.4 33.7 48.4C32.5 48.4 31.8 48.4 31.6 48.4C28 48.4667 25.4 49.4 23.8 51.2C22.2 52.9333 21.4 54.9 21.4 57.1C21.4 59.3 22.1 61.1667 23.5 62.7C24.9 64.1667 26.6333 65.3333 28.7 66.2C30.8333 67 33.1 67.9333 35.5 69C37.9667 70.0667 40.2333 71.1667 42.3 72.3C44.4333 73.3667 46.2 74.9667 47.6 77.1C49 79.1667 49.7 81.7667 49.7 84.9C49.7 88.0333 48.6 90.7 46.4 92.9C44.2 95.1 41.7333 96.5667 39 97.3C36.3333 98.0333 33.4333 98.4 30.3 98.4C23.5 98.4 18.4 96.9 15 93.9L15.6 93.3C16.9333 94.5667 18.9 95.6 21.5 96.4C24.1667 97.2 26.7333 97.6 29.2 97.6C33.1333 97.6 36.3667 96.5333 38.9 94.4C41.5 92.2 42.8 89.5 42.8 86.3C42.8 83.0333 41.8333 80.4333 39.9 78.5C37.9667 76.5 35.6 74.9667 32.8 73.9C30.0667 72.7667 27.3 71.6667 24.5 70.6C21.7 69.4667 19.3333 67.9333 17.4 66C15.4667 64 14.5 61.7 14.5 59.1C14.5 56.5 15.1 54.4 16.3 52.8C17.5 51.1333 19.1 49.9667 21.1 49.3C24.5 48.1667 27.9 47.6 31.3 47.6C37.0333 47.6 41.5 48.6667 44.7 50.8L44.2 51.5ZM56.2344 48H63.2344V60.4C64.3677 57.3333 66.4677 54.4333 69.5344 51.7C72.601 48.9667 76.0677 47.6 79.9344 47.6C93.4677 47.6 100.234 55.5333 100.234 71.4C100.234 89.4 91.501 98.4 74.0344 98.4C70.901 98.4 67.301 97.6667 63.2344 96.2V123H56.2344V48ZM79.8344 48.4C75.701 48.4 71.9677 50.2 68.6344 53.8C65.301 57.3333 63.501 60.5333 63.2344 63.4V95.3C67.301 96.8333 70.8677 97.6 73.9344 97.6C86.801 97.6 93.2344 88.8333 93.2344 71.3C93.2344 56.0333 88.7677 48.4 79.8344 48.4Z" fill="black"/>
<rect x="1.5" y="1.5" width="207" height="146" stroke="black" stroke-width="3"/>
</svg>
